<svg width="53" height="18" viewBox="0 0 53 18" fill="none" xmlns="http://www.w3.org/2000/svg">
<path d="M4.18837 17V1.16L5.22037 2.288H0.396374V0.199999H6.56437V17H4.18837ZM16.6232 17.192C15.3112 17.192 14.1352 16.856 13.0952 16.184C12.0712 15.512 11.2552 14.536 10.6472 13.256C10.0552 11.976 9.75919 10.424 9.75919 8.6C9.75919 6.776 10.0552 5.224 10.6472 3.944C11.2552 2.664 12.0712 1.688 13.0952 1.016C14.1352 0.344 15.3112 0.0079999 16.6232 0.0079999C17.9192 0.0079999 19.0872 0.344 20.1272 1.016C21.1672 1.688 21.9832 2.664 22.5752 3.944C23.1672 5.224 23.4632 6.776 23.4632 8.6C23.4632 10.424 23.1672 11.976 22.5752 13.256C21.9832 14.536 21.1672 15.512 20.1272 16.184C19.0872 16.856 17.9192 17.192 16.6232 17.192ZM16.6232 15.056C17.5032 15.056 18.2712 14.816 18.9272 14.336C19.5992 13.856 20.1192 13.136 20.4872 12.176C20.8712 11.216 21.0632 10.024 21.0632 8.6C21.0632 7.176 20.8712 5.984 20.4872 5.024C20.1192 4.064 19.5992 3.344 18.9272 2.864C18.2712 2.384 17.5032 2.144 16.6232 2.144C15.7432 2.144 14.9672 2.384 14.2952 2.864C13.6232 3.344 13.0952 4.064 12.7112 5.024C12.3432 5.984 12.1592 7.176 12.1592 8.6C12.1592 10.024 12.3432 11.216 12.7112 12.176C13.0952 13.136 13.6232 13.856 14.2952 14.336C14.9672 14.816 15.7432 15.056 16.6232 15.056ZM32.151 17.192C30.839 17.192 29.663 16.856 28.623 16.184C27.599 15.512 26.783 14.536 26.175 13.256C25.583 11.976 25.287 10.424 25.287 8.6C25.287 6.776 25.583 5.224 26.175 3.944C26.783 2.664 27.599 1.688 28.623 1.016C29.663 0.344 30.839 0.0079999 32.151 0.0079999C33.447 0.0079999 34.615 0.344 35.655 1.016C36.695 1.688 37.511 2.664 38.103 3.944C38.695 5.224 38.991 6.776 38.991 8.6C38.991 10.424 38.695 11.976 38.103 13.256C37.511 14.536 36.695 15.512 35.655 16.184C34.615 16.856 33.447 17.192 32.151 17.192ZM32.151 15.056C33.031 15.056 33.799 14.816 34.455 14.336C35.127 13.856 35.647 13.136 36.015 12.176C36.399 11.216 36.591 10.024 36.591 8.6C36.591 7.176 36.399 5.984 36.015 5.024C35.647 4.064 35.127 3.344 34.455 2.864C33.799 2.384 33.031 2.144 32.151 2.144C31.271 2.144 30.495 2.384 29.823 2.864C29.151 3.344 28.623 4.064 28.239 5.024C27.871 5.984 27.687 7.176 27.687 8.6C27.687 10.024 27.871 11.216 28.239 12.176C28.623 13.136 29.151 13.856 29.823 14.336C30.495 14.816 31.271 15.056 32.151 15.056ZM45.8029 13.856V3.344H47.8189V13.856H45.8029ZM41.4349 9.56V7.664H52.1869V9.56H41.4349Z" fill="#F755A2"/>
</svg>
