<svg width="57" height="18" viewBox="0 0 57 18" fill="none" xmlns="http://www.w3.org/2000/svg">
<path d="M0.654874 17V15.368L7.49487 8.768C8.10287 8.192 8.55087 7.688 8.83887 7.256C9.14287 6.808 9.34287 6.4 9.43887 6.032C9.55087 5.648 9.60687 5.28 9.60687 4.928C9.60687 4.064 9.30287 3.384 8.69487 2.888C8.08687 2.392 7.19887 2.144 6.03087 2.144C5.13487 2.144 4.32687 2.296 3.60687 2.6C2.88687 2.888 2.26287 3.344 1.73487 3.968L0.102874 2.552C0.742874 1.736 1.59887 1.112 2.67087 0.68C3.75887 0.232 4.95087 0.0079999 6.24687 0.0079999C7.41487 0.0079999 8.43087 0.2 9.29487 0.584C10.1589 0.952 10.8229 1.488 11.2869 2.192C11.7669 2.896 12.0069 3.728 12.0069 4.688C12.0069 5.232 11.9349 5.768 11.7909 6.296C11.6469 6.824 11.3749 7.384 10.9749 7.976C10.5749 8.568 9.99887 9.232 9.24687 9.968L3.15087 15.848L2.57487 14.912H12.7269V17H0.654874ZM21.0607 17.192C19.7487 17.192 18.5727 16.856 17.5327 16.184C16.5087 15.512 15.6927 14.536 15.0847 13.256C14.4927 11.976 14.1967 10.424 14.1967 8.6C14.1967 6.776 14.4927 5.224 15.0847 3.944C15.6927 2.664 16.5087 1.688 17.5327 1.016C18.5727 0.344 19.7487 0.0079999 21.0607 0.0079999C22.3567 0.0079999 23.5247 0.344 24.5647 1.016C25.6047 1.688 26.4207 2.664 27.0127 3.944C27.6047 5.224 27.9007 6.776 27.9007 8.6C27.9007 10.424 27.6047 11.976 27.0127 13.256C26.4207 14.536 25.6047 15.512 24.5647 16.184C23.5247 16.856 22.3567 17.192 21.0607 17.192ZM21.0607 15.056C21.9407 15.056 22.7087 14.816 23.3647 14.336C24.0367 13.856 24.5567 13.136 24.9247 12.176C25.3087 11.216 25.5007 10.024 25.5007 8.6C25.5007 7.176 25.3087 5.984 24.9247 5.024C24.5567 4.064 24.0367 3.344 23.3647 2.864C22.7087 2.384 21.9407 2.144 21.0607 2.144C20.1807 2.144 19.4047 2.384 18.7327 2.864C18.0607 3.344 17.5327 4.064 17.1487 5.024C16.7807 5.984 16.5967 7.176 16.5967 8.6C16.5967 10.024 16.7807 11.216 17.1487 12.176C17.5327 13.136 18.0607 13.856 18.7327 14.336C19.4047 14.816 20.1807 15.056 21.0607 15.056ZM36.5885 17.192C35.2765 17.192 34.1005 16.856 33.0605 16.184C32.0365 15.512 31.2205 14.536 30.6125 13.256C30.0205 11.976 29.7245 10.424 29.7245 8.6C29.7245 6.776 30.0205 5.224 30.6125 3.944C31.2205 2.664 32.0365 1.688 33.0605 1.016C34.1005 0.344 35.2765 0.0079999 36.5885 0.0079999C37.8845 0.0079999 39.0525 0.344 40.0925 1.016C41.1325 1.688 41.9485 2.664 42.5405 3.944C43.1325 5.224 43.4285 6.776 43.4285 8.6C43.4285 10.424 43.1325 11.976 42.5405 13.256C41.9485 14.536 41.1325 15.512 40.0925 16.184C39.0525 16.856 37.8845 17.192 36.5885 17.192ZM36.5885 15.056C37.4685 15.056 38.2365 14.816 38.8925 14.336C39.5645 13.856 40.0845 13.136 40.4525 12.176C40.8365 11.216 41.0285 10.024 41.0285 8.6C41.0285 7.176 40.8365 5.984 40.4525 5.024C40.0845 4.064 39.5645 3.344 38.8925 2.864C38.2365 2.384 37.4685 2.144 36.5885 2.144C35.7085 2.144 34.9325 2.384 34.2605 2.864C33.5885 3.344 33.0605 4.064 32.6765 5.024C32.3085 5.984 32.1245 7.176 32.1245 8.6C32.1245 10.024 32.3085 11.216 32.6765 12.176C33.0605 13.136 33.5885 13.856 34.2605 14.336C34.9325 14.816 35.7085 15.056 36.5885 15.056ZM50.2404 13.856V3.344H52.2564V13.856H50.2404ZM45.8724 9.56V7.664H56.6244V9.56H45.8724Z" fill="#F755A2"/>
</svg>
