<svg width="110" height="18" viewBox="0 0 110 18" fill="none" xmlns="http://www.w3.org/2000/svg">
<path d="M6.79222 17.192C5.60822 17.192 4.45622 17.008 3.33622 16.64C2.23222 16.272 1.32822 15.776 0.624219 15.152L1.72822 13.256C2.28822 13.784 3.01622 14.216 3.91222 14.552C4.80822 14.888 5.76822 15.056 6.79222 15.056C8.04022 15.056 9.00822 14.792 9.69622 14.264C10.4002 13.72 10.7522 12.992 10.7522 12.08C10.7522 11.2 10.4162 10.496 9.74422 9.968C9.08822 9.424 8.04022 9.152 6.60022 9.152H5.25622V7.472L10.2482 1.328L10.5842 2.288H1.39222V0.199999H12.4802V1.832L7.51222 7.952L6.26422 7.208H7.05622C9.08822 7.208 10.6082 7.664 11.6162 8.576C12.6402 9.488 13.1522 10.648 13.1522 12.056C13.1522 13 12.9202 13.864 12.4562 14.648C11.9922 15.432 11.2882 16.056 10.3442 16.52C9.41622 16.968 8.23222 17.192 6.79222 17.192ZM21.7746 17.192C20.4626 17.192 19.2866 16.856 18.2466 16.184C17.2226 15.512 16.4066 14.536 15.7986 13.256C15.2066 11.976 14.9106 10.424 14.9106 8.6C14.9106 6.776 15.2066 5.224 15.7986 3.944C16.4066 2.664 17.2226 1.688 18.2466 1.016C19.2866 0.344 20.4626 0.0079999 21.7746 0.0079999C23.0706 0.0079999 24.2386 0.344 25.2786 1.016C26.3186 1.688 27.1346 2.664 27.7266 3.944C28.3186 5.224 28.6146 6.776 28.6146 8.6C28.6146 10.424 28.3186 11.976 27.7266 13.256C27.1346 14.536 26.3186 15.512 25.2786 16.184C24.2386 16.856 23.0706 17.192 21.7746 17.192ZM21.7746 15.056C22.6546 15.056 23.4226 14.816 24.0786 14.336C24.7506 13.856 25.2706 13.136 25.6386 12.176C26.0226 11.216 26.2146 10.024 26.2146 8.6C26.2146 7.176 26.0226 5.984 25.6386 5.024C25.2706 4.064 24.7506 3.344 24.0786 2.864C23.4226 2.384 22.6546 2.144 21.7746 2.144C20.8946 2.144 20.1186 2.384 19.4466 2.864C18.7746 3.344 18.2466 4.064 17.8626 5.024C17.4946 5.984 17.3106 7.176 17.3106 8.6C17.3106 10.024 17.4946 11.216 17.8626 12.176C18.2466 13.136 18.7746 13.856 19.4466 14.336C20.1186 14.816 20.8946 15.056 21.7746 15.056ZM37.3024 17.192C35.9904 17.192 34.8144 16.856 33.7744 16.184C32.7504 15.512 31.9344 14.536 31.3264 13.256C30.7344 11.976 30.4384 10.424 30.4384 8.6C30.4384 6.776 30.7344 5.224 31.3264 3.944C31.9344 2.664 32.7504 1.688 33.7744 1.016C34.8144 0.344 35.9904 0.0079999 37.3024 0.0079999C38.5984 0.0079999 39.7664 0.344 40.8064 1.016C41.8464 1.688 42.6624 2.664 43.2544 3.944C43.8464 5.224 44.1424 6.776 44.1424 8.6C44.1424 10.424 43.8464 11.976 43.2544 13.256C42.6624 14.536 41.8464 15.512 40.8064 16.184C39.7664 16.856 38.5984 17.192 37.3024 17.192ZM37.3024 15.056C38.1824 15.056 38.9504 14.816 39.6064 14.336C40.2784 13.856 40.7984 13.136 41.1664 12.176C41.5504 11.216 41.7424 10.024 41.7424 8.6C41.7424 7.176 41.5504 5.984 41.1664 5.024C40.7984 4.064 40.2784 3.344 39.6064 2.864C38.9504 2.384 38.1824 2.144 37.3024 2.144C36.4224 2.144 35.6464 2.384 34.9744 2.864C34.3024 3.344 33.7744 4.064 33.3904 5.024C33.0224 5.984 32.8384 7.176 32.8384 8.6C32.8384 10.024 33.0224 11.216 33.3904 12.176C33.7744 13.136 34.3024 13.856 34.9744 14.336C35.6464 14.816 36.4224 15.056 37.3024 15.056ZM58.7955 17.192C57.4835 17.192 56.3075 16.856 55.2675 16.184C54.2435 15.512 53.4275 14.536 52.8195 13.256C52.2275 11.976 51.9315 10.424 51.9315 8.6C51.9315 6.776 52.2275 5.224 52.8195 3.944C53.4275 2.664 54.2435 1.688 55.2675 1.016C56.3075 0.344 57.4835 0.0079999 58.7955 0.0079999C60.0915 0.0079999 61.2595 0.344 62.2995 1.016C63.3395 1.688 64.1555 2.664 64.7475 3.944C65.3395 5.224 65.6355 6.776 65.6355 8.6C65.6355 10.424 65.3395 11.976 64.7475 13.256C64.1555 14.536 63.3395 15.512 62.2995 16.184C61.2595 16.856 60.0915 17.192 58.7955 17.192ZM58.7955 15.056C59.6755 15.056 60.4435 14.816 61.0995 14.336C61.7715 13.856 62.2915 13.136 62.6595 12.176C63.0435 11.216 63.2355 10.024 63.2355 8.6C63.2355 7.176 63.0435 5.984 62.6595 5.024C62.2915 4.064 61.7715 3.344 61.0995 2.864C60.4435 2.384 59.6755 2.144 58.7955 2.144C57.9155 2.144 57.1395 2.384 56.4675 2.864C55.7955 3.344 55.2675 4.064 54.8835 5.024C54.5155 5.984 54.3315 7.176 54.3315 8.6C54.3315 10.024 54.5155 11.216 54.8835 12.176C55.2675 13.136 55.7955 13.856 56.4675 14.336C57.1395 14.816 57.9155 15.056 58.7955 15.056ZM74.3233 17.192C73.0113 17.192 71.8353 16.856 70.7953 16.184C69.7713 15.512 68.9553 14.536 68.3473 13.256C67.7553 11.976 67.4593 10.424 67.4593 8.6C67.4593 6.776 67.7553 5.224 68.3473 3.944C68.9553 2.664 69.7713 1.688 70.7953 1.016C71.8353 0.344 73.0113 0.0079999 74.3233 0.0079999C75.6193 0.0079999 76.7873 0.344 77.8273 1.016C78.8673 1.688 79.6833 2.664 80.2753 3.944C80.8673 5.224 81.1633 6.776 81.1633 8.6C81.1633 10.424 80.8673 11.976 80.2753 13.256C79.6833 14.536 78.8673 15.512 77.8273 16.184C76.7873 16.856 75.6193 17.192 74.3233 17.192ZM74.3233 15.056C75.2033 15.056 75.9713 14.816 76.6273 14.336C77.2993 13.856 77.8193 13.136 78.1873 12.176C78.5713 11.216 78.7633 10.024 78.7633 8.6C78.7633 7.176 78.5713 5.984 78.1873 5.024C77.8193 4.064 77.2993 3.344 76.6273 2.864C75.9713 2.384 75.2033 2.144 74.3233 2.144C73.4433 2.144 72.6673 2.384 71.9953 2.864C71.3233 3.344 70.7953 4.064 70.4113 5.024C70.0433 5.984 69.8593 7.176 69.8593 8.6C69.8593 10.024 70.0433 11.216 70.4113 12.176C70.7953 13.136 71.3233 13.856 71.9953 14.336C72.6673 14.816 73.4433 15.056 74.3233 15.056ZM89.8512 17.192C88.5392 17.192 87.3632 16.856 86.3232 16.184C85.2992 15.512 84.4832 14.536 83.8752 13.256C83.2832 11.976 82.9872 10.424 82.9872 8.6C82.9872 6.776 83.2832 5.224 83.8752 3.944C84.4832 2.664 85.2992 1.688 86.3232 1.016C87.3632 0.344 88.5392 0.0079999 89.8512 0.0079999C91.1472 0.0079999 92.3152 0.344 93.3552 1.016C94.3952 1.688 95.2112 2.664 95.8032 3.944C96.3952 5.224 96.6912 6.776 96.6912 8.6C96.6912 10.424 96.3952 11.976 95.8032 13.256C95.2112 14.536 94.3952 15.512 93.3552 16.184C92.3152 16.856 91.1472 17.192 89.8512 17.192ZM89.8512 15.056C90.7312 15.056 91.4992 14.816 92.1552 14.336C92.8272 13.856 93.3472 13.136 93.7152 12.176C94.0992 11.216 94.2912 10.024 94.2912 8.6C94.2912 7.176 94.0992 5.984 93.7152 5.024C93.3472 4.064 92.8272 3.344 92.1552 2.864C91.4992 2.384 90.7312 2.144 89.8512 2.144C88.9712 2.144 88.1952 2.384 87.5232 2.864C86.8512 3.344 86.3232 4.064 85.9392 5.024C85.5712 5.984 85.3872 7.176 85.3872 8.6C85.3872 10.024 85.5712 11.216 85.9392 12.176C86.3232 13.136 86.8512 13.856 87.5232 14.336C88.1952 14.816 88.9712 15.056 89.8512 15.056ZM103.503 13.856V3.344H105.519V13.856H103.503ZM99.135 9.56V7.664H109.887V9.56H99.135Z" fill="#F755A2"/>
</svg>
