<svg width="97" height="18" viewBox="0 0 97 18" fill="none" xmlns="http://www.w3.org/2000/svg">
<path d="M0.99653 12.872V11.192L9.58853 0.199999H12.1805L3.66053 11.192L2.43653 10.808H15.8525V12.872H0.99653ZM10.3325 17V12.872L10.4045 10.808V7.16H12.6605V17H10.3325ZM16.5712 12.872V11.192L25.1632 0.199999H27.7552L19.2352 11.192L18.0112 10.808H31.4272V12.872H16.5712ZM25.9072 17V12.872L25.9792 10.808V7.16H28.2352V17H25.9072ZM45.2152 17.192C43.9032 17.192 42.7272 16.856 41.6872 16.184C40.6632 15.512 39.8472 14.536 39.2392 13.256C38.6472 11.976 38.3512 10.424 38.3512 8.6C38.3512 6.776 38.6472 5.224 39.2392 3.944C39.8472 2.664 40.6632 1.688 41.6872 1.016C42.7272 0.344 43.9032 0.0079999 45.2152 0.0079999C46.5112 0.0079999 47.6792 0.344 48.7192 1.016C49.7592 1.688 50.5752 2.664 51.1672 3.944C51.7592 5.224 52.0552 6.776 52.0552 8.6C52.0552 10.424 51.7592 11.976 51.1672 13.256C50.5752 14.536 49.7592 15.512 48.7192 16.184C47.6792 16.856 46.5112 17.192 45.2152 17.192ZM45.2152 15.056C46.0952 15.056 46.8632 14.816 47.5192 14.336C48.1912 13.856 48.7112 13.136 49.0792 12.176C49.4632 11.216 49.6552 10.024 49.6552 8.6C49.6552 7.176 49.4632 5.984 49.0792 5.024C48.7112 4.064 48.1912 3.344 47.5192 2.864C46.8632 2.384 46.0952 2.144 45.2152 2.144C44.3352 2.144 43.5592 2.384 42.8872 2.864C42.2152 3.344 41.6872 4.064 41.3032 5.024C40.9352 5.984 40.7512 7.176 40.7512 8.6C40.7512 10.024 40.9352 11.216 41.3032 12.176C41.6872 13.136 42.2152 13.856 42.8872 14.336C43.5592 14.816 44.3352 15.056 45.2152 15.056ZM60.743 17.192C59.431 17.192 58.255 16.856 57.215 16.184C56.191 15.512 55.375 14.536 54.767 13.256C54.175 11.976 53.879 10.424 53.879 8.6C53.879 6.776 54.175 5.224 54.767 3.944C55.375 2.664 56.191 1.688 57.215 1.016C58.255 0.344 59.431 0.0079999 60.743 0.0079999C62.039 0.0079999 63.207 0.344 64.247 1.016C65.287 1.688 66.103 2.664 66.695 3.944C67.287 5.224 67.583 6.776 67.583 8.6C67.583 10.424 67.287 11.976 66.695 13.256C66.103 14.536 65.287 15.512 64.247 16.184C63.207 16.856 62.039 17.192 60.743 17.192ZM60.743 15.056C61.623 15.056 62.391 14.816 63.047 14.336C63.719 13.856 64.239 13.136 64.607 12.176C64.991 11.216 65.183 10.024 65.183 8.6C65.183 7.176 64.991 5.984 64.607 5.024C64.239 4.064 63.719 3.344 63.047 2.864C62.391 2.384 61.623 2.144 60.743 2.144C59.863 2.144 59.087 2.384 58.415 2.864C57.743 3.344 57.215 4.064 56.831 5.024C56.463 5.984 56.279 7.176 56.279 8.6C56.279 10.024 56.463 11.216 56.831 12.176C57.215 13.136 57.743 13.856 58.415 14.336C59.087 14.816 59.863 15.056 60.743 15.056ZM76.2708 17.192C74.9588 17.192 73.7828 16.856 72.7428 16.184C71.7188 15.512 70.9028 14.536 70.2948 13.256C69.7028 11.976 69.4068 10.424 69.4068 8.6C69.4068 6.776 69.7028 5.224 70.2948 3.944C70.9028 2.664 71.7188 1.688 72.7428 1.016C73.7828 0.344 74.9588 0.0079999 76.2708 0.0079999C77.5668 0.0079999 78.7348 0.344 79.7748 1.016C80.8148 1.688 81.6308 2.664 82.2228 3.944C82.8148 5.224 83.1108 6.776 83.1108 8.6C83.1108 10.424 82.8148 11.976 82.2228 13.256C81.6308 14.536 80.8148 15.512 79.7748 16.184C78.7348 16.856 77.5668 17.192 76.2708 17.192ZM76.2708 15.056C77.1508 15.056 77.9188 14.816 78.5748 14.336C79.2468 13.856 79.7668 13.136 80.1348 12.176C80.5188 11.216 80.7108 10.024 80.7108 8.6C80.7108 7.176 80.5188 5.984 80.1348 5.024C79.7668 4.064 79.2468 3.344 78.5748 2.864C77.9188 2.384 77.1508 2.144 76.2708 2.144C75.3908 2.144 74.6148 2.384 73.9428 2.864C73.2708 3.344 72.7428 4.064 72.3588 5.024C71.9908 5.984 71.8068 7.176 71.8068 8.6C71.8068 10.024 71.9908 11.216 72.3588 12.176C72.7428 13.136 73.2708 13.856 73.9428 14.336C74.6148 14.816 75.3908 15.056 76.2708 15.056ZM89.9227 13.856V3.344H91.9387V13.856H89.9227ZM85.5547 9.56V7.664H96.3067V9.56H85.5547Z" fill="#F755A2"/>
</svg>
