<svg width="40" height="40" viewBox="0 0 40 40" fill="none" xmlns="http://www.w3.org/2000/svg">
<path d="M21.25 31H6.25C3.48858 31 1.25 28.7614 1.25 26V19.75C1.25 19.0596 1.80964 18.5 2.5 18.5H25" stroke="#796683" stroke-width="1.5" stroke-linecap="round" stroke-linejoin="round"/>
<path d="M5 18.5V16C5 14.6193 6.11929 13.5 7.5 13.5H27.5C28.8807 13.5 30 14.6193 30 16V17.25" stroke="#796683" stroke-width="1.5" stroke-linecap="round" stroke-linejoin="round"/>
<path d="M7.5 13.5C7.5 9.75 10 6 13.75 6H18.75C21.3371 6.05799 23.6777 4.47247 24.5833 2.04833C24.7429 1.62814 25.1171 1.327 25.5617 1.26096C26.0063 1.19493 26.4519 1.37433 26.7267 1.73C31.645 8.32167 27.5 13.5 27.5 13.5" stroke="#796683" stroke-width="1.5" stroke-linecap="round" stroke-linejoin="round"/>
<path fill-rule="evenodd" clip-rule="evenodd" d="M38.75 32.3333C38.75 35.7851 35.9518 38.5833 32.5 38.5833C29.0482 38.5833 26.25 35.7851 26.25 32.3333C26.25 28.215 31.4583 21.01 32.5 21.01C33.5417 21.01 38.75 28.2083 38.75 32.3333Z" stroke="#796683" stroke-width="1.5" stroke-linecap="round" stroke-linejoin="round"/>
</svg>
