<svg width="40" height="40" viewBox="0 0 40 40" fill="none" xmlns="http://www.w3.org/2000/svg">
<path d="M13.75 28.75H3.75C2.36929 28.75 1.25 27.6307 1.25 26.25V6.25C1.25 4.86929 2.36929 3.75 3.75 3.75H26.25C27.6307 3.75 28.75 4.86929 28.75 6.25V13.75" stroke="#796683" stroke-width="1.5" stroke-linecap="round" stroke-linejoin="round"/>
<path d="M1.25 11.25H28.75" stroke="#796683" stroke-width="1.5" stroke-linecap="round" stroke-linejoin="round"/>
<path d="M8.75 6.25V1.25" stroke="#796683" stroke-width="1.5" stroke-linecap="round" stroke-linejoin="round"/>
<path d="M21.25 6.25V1.25" stroke="#796683" stroke-width="1.5" stroke-linecap="round" stroke-linejoin="round"/>
<path d="M25 31.25H18.75V37.5" stroke="#796683" stroke-width="1.5" stroke-linecap="round" stroke-linejoin="round"/>
<path d="M37.7779 32.4733C36.4144 36.4485 32.5516 39.0129 28.3588 38.7264C24.166 38.4398 20.688 35.3738 19.8779 31.25" stroke="#796683" stroke-width="1.5" stroke-linecap="round" stroke-linejoin="round"/>
<path d="M32.5 26.25H38.75V20" stroke="#796683" stroke-width="1.5" stroke-linecap="round" stroke-linejoin="round"/>
<path d="M19.7217 25.0283C21.0828 21.0507 24.9462 18.4836 29.1405 18.7698C33.3348 19.0561 36.8136 22.1243 37.6217 26.25" stroke="#796683" stroke-width="1.5" stroke-linecap="round" stroke-linejoin="round"/>
</svg>
