<svg width="56" height="20" viewBox="0 0 56 20" fill="none" xmlns="http://www.w3.org/2000/svg">
<path d="M0 0H56V16C56 18.2091 54.2091 20 52 20H4C1.79086 20 0 18.2091 0 16V0Z" fill="#DE2E2E"/>
<path d="M12.3697 14.1C11.8364 14.1 11.3397 14.0133 10.8797 13.84C10.4264 13.66 10.0297 13.41 9.68973 13.09C9.35639 12.7633 9.09639 12.38 8.90973 11.94C8.72306 11.5 8.62973 11.02 8.62973 10.5C8.62973 9.98 8.72306 9.5 8.90973 9.06C9.09639 8.62 9.35973 8.24 9.69973 7.92C10.0397 7.59333 10.4364 7.34333 10.8897 7.17C11.3431 6.99 11.8397 6.9 12.3797 6.9C12.9531 6.9 13.4764 7 13.9497 7.2C14.4231 7.39333 14.8231 7.68333 15.1497 8.07L14.3097 8.86C14.0564 8.58667 13.7731 8.38333 13.4597 8.25C13.1464 8.11 12.8064 8.04 12.4397 8.04C12.0731 8.04 11.7364 8.1 11.4297 8.22C11.1297 8.34 10.8664 8.51 10.6397 8.73C10.4197 8.95 10.2464 9.21 10.1197 9.51C9.99973 9.81 9.93973 10.14 9.93973 10.5C9.93973 10.86 9.99973 11.19 10.1197 11.49C10.2464 11.79 10.4197 12.05 10.6397 12.27C10.8664 12.49 11.1297 12.66 11.4297 12.78C11.7364 12.9 12.0731 12.96 12.4397 12.96C12.8064 12.96 13.1464 12.8933 13.4597 12.76C13.7731 12.62 14.0564 12.41 14.3097 12.13L15.1497 12.93C14.8231 13.31 14.4231 13.6 13.9497 13.8C13.4764 14 12.9497 14.1 12.3697 14.1ZM19.6468 14L17.7168 11.44L18.7368 10.81L21.1168 14H19.6468ZM15.8168 14V8.66H17.0668V14H15.8168ZM16.6968 11.86V10.82H18.5068V11.86H16.6968ZM18.8568 11.48L17.6868 11.34L19.6468 8.66H20.9868L18.8568 11.48ZM21.5984 14V8.66H22.8484V12.18L25.7984 8.66H26.9384V14H25.6884V10.48L22.7484 14H21.5984ZM31.8799 13.42V9.72H29.8299L29.7999 10.58C29.7865 10.8867 29.7665 11.1833 29.7399 11.47C29.7132 11.75 29.6699 12.01 29.6099 12.25C29.5499 12.4833 29.4632 12.6767 29.3499 12.83C29.2365 12.9833 29.0865 13.0833 28.8999 13.13L27.6599 12.94C27.8599 12.94 28.0199 12.8767 28.1399 12.75C28.2665 12.6167 28.3632 12.4367 28.4299 12.21C28.5032 11.9767 28.5565 11.7133 28.5899 11.42C28.6232 11.12 28.6465 10.81 28.6599 10.49L28.7299 8.66H33.1299V13.42H31.8799ZM27.4699 15.19V12.94H33.9199V15.19H32.7499V14H28.6299V15.19H27.4699ZM38.4663 14L36.5363 11.44L37.5563 10.81L39.9363 14H38.4663ZM34.6363 14V8.66H35.8863V14H34.6363ZM35.5163 11.86V10.82H37.3263V11.86H35.5163ZM37.6763 11.48L36.5063 11.34L38.4663 8.66H39.8063L37.6763 11.48ZM43.5603 14V12.92L43.4903 12.69V10.8C43.4903 10.4333 43.3803 10.15 43.1603 9.95C42.9403 9.74333 42.6069 9.64 42.1603 9.64C41.8603 9.64 41.5636 9.68667 41.2703 9.78C40.9836 9.87333 40.7403 10.0033 40.5403 10.17L40.0503 9.26C40.3369 9.04 40.6769 8.87667 41.0703 8.77C41.4703 8.65667 41.8836 8.6 42.3103 8.6C43.0836 8.6 43.6803 8.78667 44.1003 9.16C44.5269 9.52667 44.7403 10.0967 44.7403 10.87V14H43.5603ZM41.8803 14.07C41.4803 14.07 41.1303 14.0033 40.8303 13.87C40.5303 13.73 40.2969 13.54 40.1303 13.3C39.9703 13.0533 39.8903 12.7767 39.8903 12.47C39.8903 12.17 39.9603 11.9 40.1003 11.66C40.2469 11.42 40.4836 11.23 40.8103 11.09C41.1369 10.95 41.5703 10.88 42.1103 10.88H43.6603V11.71H42.2003C41.7736 11.71 41.4869 11.78 41.3403 11.92C41.1936 12.0533 41.1203 12.22 41.1203 12.42C41.1203 12.6467 41.2103 12.8267 41.3903 12.96C41.5703 13.0933 41.8203 13.16 42.1403 13.16C42.4469 13.16 42.7203 13.09 42.9603 12.95C43.2069 12.81 43.3836 12.6033 43.4903 12.33L43.7003 13.08C43.5803 13.3933 43.3636 13.6367 43.0503 13.81C42.7436 13.9833 42.3536 14.07 41.8803 14.07ZM45.9471 11.68L45.7071 7H47.1871L46.9371 11.68H45.9471ZM46.4471 14.07C46.2137 14.07 46.0204 13.9933 45.8671 13.84C45.7137 13.6867 45.6371 13.5033 45.6371 13.29C45.6371 13.0767 45.7137 12.8967 45.8671 12.75C46.0204 12.5967 46.2137 12.52 46.4471 12.52C46.6804 12.52 46.8704 12.5967 47.0171 12.75C47.1637 12.8967 47.2371 13.0767 47.2371 13.29C47.2371 13.5033 47.1637 13.6867 47.0171 13.84C46.8704 13.9933 46.6804 14.07 46.4471 14.07Z" fill="white"/>
</svg>
