<svg width="49" height="48" viewBox="0 0 49 48" fill="none" xmlns="http://www.w3.org/2000/svg">
<path d="M31.5219 26.0098C31.5219 26.0098 32.9772 27.4065 33.3372 28.0528C33.3442 28.0621 33.3497 28.0725 33.3534 28.0834C33.5001 28.3222 33.5361 28.5094 33.4641 28.6475C33.3426 28.8758 32.9313 28.9904 32.7918 29H30.2196C30.0405 29 29.6679 28.9545 29.2143 28.6502C28.8678 28.4149 28.5231 28.0275 28.1892 27.6488C27.6906 27.0864 27.2595 26.5984 26.823 26.5984C26.7679 26.5983 26.7131 26.6071 26.661 26.6246C26.3307 26.7261 25.9113 27.1835 25.9113 28.4018C25.9113 28.7831 25.6017 29 25.3848 29H24.2067C23.8053 29 21.7155 28.8636 19.8624 26.9648C17.5917 24.6402 15.5523 19.9769 15.5325 19.9358C15.4056 19.6341 15.672 19.4697 15.96 19.4697H18.5574C18.9057 19.4697 19.0191 19.6743 19.0983 19.858C19.1901 20.0687 19.5303 20.9118 20.0883 21.859C20.9919 23.4 21.5472 24.0271 21.9909 24.0271C22.0742 24.0273 22.1562 24.0062 22.2285 23.9659C22.8081 23.6563 22.7001 21.6447 22.6731 21.2302C22.6731 21.1497 22.6722 20.332 22.3752 19.9367C22.1628 19.6533 21.801 19.5431 21.5823 19.5029C21.6408 19.4207 21.765 19.2947 21.9243 19.2204C22.3212 19.028 23.0385 19 23.7504 19H24.1455C24.9177 19.0105 25.1175 19.0586 25.3983 19.1277C25.9635 19.2589 25.9743 19.6148 25.9248 20.827C25.9104 21.1733 25.8951 21.5634 25.8951 22.0226C25.8951 22.1205 25.8906 22.2298 25.8906 22.3409C25.8735 22.9627 25.851 23.6633 26.3028 23.951C26.3614 23.9865 26.4291 24.0053 26.4981 24.0052C26.6547 24.0052 27.1236 24.0052 28.3953 21.8844C28.9533 20.9477 29.3853 19.8431 29.415 19.76C29.4402 19.7137 29.5158 19.5833 29.6076 19.5309C29.6729 19.4971 29.746 19.4802 29.82 19.4819H32.8755C33.2085 19.4819 33.4344 19.5309 33.4785 19.6533C33.5523 19.8518 33.4641 20.4579 32.0691 22.2911C31.8342 22.5963 31.6281 22.8604 31.4472 23.0913C30.1827 24.704 30.1827 24.7854 31.5219 26.0098Z" fill="#2E8CF7"/>
<rect x="1" y="0.5" width="47" height="47" rx="23.5" stroke="#B8BFCC" stroke-opacity="0.33"/>
</svg>
