<svg width="37" height="20" viewBox="0 0 37 20" fill="none" xmlns="http://www.w3.org/2000/svg">
<path d="M0 0H37V16C37 18.2091 35.2091 20 33 20H4C1.79086 20 0 18.2091 0 16V0Z" fill="#9386FE"/>
<path d="M8.50621 7H10.0062L11.6562 9.34L13.3062 7H14.8262L12.4762 10.36L15.0162 14H13.4762L11.6562 11.45L9.84621 14H8.34621L10.8762 10.41L8.50621 7ZM15.4824 14V8.66H16.7324V12.18L19.6824 8.66H20.8224V14H19.5724V10.48L16.6324 14H15.4824ZM23.2139 14V9.42L23.5039 9.72H21.3339V8.66H26.3339V9.72H24.1739L24.4639 9.42V14H23.2139ZM26.9006 11.68L26.6606 7H28.1406L27.8906 11.68H26.9006ZM27.4006 14.07C27.1673 14.07 26.9739 13.9933 26.8206 13.84C26.6673 13.6867 26.5906 13.5033 26.5906 13.29C26.5906 13.0767 26.6673 12.8967 26.8206 12.75C26.9739 12.5967 27.1673 12.52 27.4006 12.52C27.6339 12.52 27.8239 12.5967 27.9706 12.75C28.1173 12.8967 28.1906 13.0767 28.1906 13.29C28.1906 13.5033 28.1173 13.6867 27.9706 13.84C27.8239 13.9933 27.6339 14.07 27.4006 14.07Z" fill="white"/>
</svg>
