<svg width="40" height="40" viewBox="0 0 40 40" fill="none" xmlns="http://www.w3.org/2000/svg">
<path fill-rule="evenodd" clip-rule="evenodd" d="M1.25 4.24832C1.25 2.59147 2.59315 1.24832 4.25 1.24832H35.75C37.4069 1.24832 38.75 2.59147 38.75 4.24832V35.7483C38.75 37.4052 37.4069 38.7483 35.75 38.7483H4.25C2.59315 38.7483 1.25 37.4052 1.25 35.7483V4.24832Z" stroke="#796683" stroke-width="1.5" stroke-linecap="round" stroke-linejoin="round"/>
<path fill-rule="evenodd" clip-rule="evenodd" d="M8.75 16.2483V31.2483C8.75 32.629 9.86929 33.7483 11.25 33.7483C12.6307 33.7483 13.75 32.629 13.75 31.2483V16.2483L8.75 16.2483Z" stroke="#796683" stroke-width="1.5" stroke-linecap="round" stroke-linejoin="round"/>
<path fill-rule="evenodd" clip-rule="evenodd" d="M15.9471 8.56332L13.7505 16.2483H8.75046L6.55379 8.56332C6.3763 7.93021 6.71617 7.26719 7.33379 7.04165C8.58464 6.55608 9.90925 6.28777 11.2505 6.24832C12.5917 6.28777 13.9163 6.55608 15.1671 7.04165C15.7848 7.26719 16.1246 7.93021 15.9471 8.56332Z" stroke="#796683" stroke-width="1.5" stroke-linecap="round" stroke-linejoin="round"/>
<path fill-rule="evenodd" clip-rule="evenodd" d="M21.25 23.7483H31.25V28.7483C31.25 30.129 30.1307 31.2483 28.75 31.2483H23.75C22.3693 31.2483 21.25 30.129 21.25 28.7483V23.7483Z" stroke="#796683" stroke-width="1.5" stroke-linecap="round" stroke-linejoin="round"/>
<path fill-rule="evenodd" clip-rule="evenodd" d="M21.25 16.2483H31.25V23.7483H21.25V16.2483Z" stroke="#796683" stroke-width="1.5" stroke-linecap="round" stroke-linejoin="round"/>
<path fill-rule="evenodd" clip-rule="evenodd" d="M23.75 8.74829H28.75C30.1307 8.74829 31.25 9.86758 31.25 11.2483V16.2483H21.25V11.2483C21.25 9.86758 22.3693 8.74829 23.75 8.74829Z" stroke="#796683" stroke-width="1.5" stroke-linecap="round" stroke-linejoin="round"/>
</svg>
