<svg width="40" height="40" viewBox="0 0 40 40" fill="none" xmlns="http://www.w3.org/2000/svg">
<path fill-rule="evenodd" clip-rule="evenodd" d="M20 11C22.2091 11 24 8.98528 24 6.5C24 4.01472 22.2091 2 20 2C17.7909 2 16 4.01472 16 6.5C16 8.98528 17.7909 11 20 11Z" stroke="#796683" stroke-width="1.5" stroke-linecap="round" stroke-linejoin="round"/>
<path fill-rule="evenodd" clip-rule="evenodd" d="M26.25 23.75V20C26.25 16.5482 23.4518 13.75 20 13.75C16.5482 13.75 13.75 16.5482 13.75 20V23.75H16.25L17.5 33.75H22.5L23.75 23.75H26.25Z" stroke="#796683" stroke-width="1.5" stroke-linecap="round" stroke-linejoin="round"/>
<path fill-rule="evenodd" clip-rule="evenodd" d="M7.5 13.75C9.57107 13.75 11.25 12.0711 11.25 10C11.25 7.92893 9.57107 6.25 7.5 6.25C5.42893 6.25 3.75 7.92893 3.75 10C3.75 12.0711 5.42893 13.75 7.5 13.75Z" stroke="#796683" stroke-width="1.5" stroke-linecap="round" stroke-linejoin="round"/>
<path d="M9.5 16.5783C7.5925 15.9364 5.49264 16.2515 3.85761 17.4251C2.22258 18.5987 1.25214 20.4874 1.25 22.5V23.75H3.75L5 31.25H10L10.6267 27.49" stroke="#796683" stroke-width="1.5" stroke-linecap="round" stroke-linejoin="round"/>
<path fill-rule="evenodd" clip-rule="evenodd" d="M32.5 13.75C34.5711 13.75 36.25 12.0711 36.25 10C36.25 7.92893 34.5711 6.25 32.5 6.25C30.4289 6.25 28.75 7.92893 28.75 10C28.75 12.0711 30.4289 13.75 32.5 13.75Z" stroke="#796683" stroke-width="1.5" stroke-linecap="round" stroke-linejoin="round"/>
<path d="M30.4997 16.5783C32.4072 15.9364 34.5071 16.2515 36.1421 17.4251C37.7771 18.5987 38.7476 20.4874 38.7497 22.5V23.75H36.2497L34.9997 31.25H29.9997L29.373 27.49" stroke="#796683" stroke-width="1.5" stroke-linecap="round" stroke-linejoin="round"/>
</svg>
