<svg width="49" height="20" viewBox="0 0 49 20" fill="none" xmlns="http://www.w3.org/2000/svg">
<path d="M0 0H49V16C49 18.2091 47.2091 20 45 20H4C1.79086 20 0 18.2091 0 16V0Z" fill="#7CCF68"/>
<path d="M14.3641 7H15.6641V14H14.3641V7ZM10.7441 14H9.44406V7H10.7441V14ZM14.4641 11H10.6341V9.89H14.4641V11ZM19.4677 14.07C18.921 14.07 18.4343 13.9533 18.0077 13.72C17.581 13.48 17.2443 13.1533 16.9977 12.74C16.751 12.3267 16.6277 11.8567 16.6277 11.33C16.6277 10.7967 16.751 10.3267 16.9977 9.92C17.2443 9.50667 17.581 9.18333 18.0077 8.95C18.4343 8.71667 18.921 8.6 19.4677 8.6C20.021 8.6 20.511 8.71667 20.9377 8.95C21.371 9.18333 21.7077 9.50333 21.9477 9.91C22.1943 10.3167 22.3177 10.79 22.3177 11.33C22.3177 11.8567 22.1943 12.3267 21.9477 12.74C21.7077 13.1533 21.371 13.48 20.9377 13.72C20.511 13.9533 20.021 14.07 19.4677 14.07ZM19.4677 13C19.7743 13 20.0477 12.9333 20.2877 12.8C20.5277 12.6667 20.7143 12.4733 20.8477 12.22C20.9877 11.9667 21.0577 11.67 21.0577 11.33C21.0577 10.9833 20.9877 10.6867 20.8477 10.44C20.7143 10.1867 20.5277 9.99333 20.2877 9.86C20.0477 9.72667 19.7777 9.66 19.4777 9.66C19.171 9.66 18.8977 9.72667 18.6577 9.86C18.4243 9.99333 18.2377 10.1867 18.0977 10.44C17.9577 10.6867 17.8877 10.9833 17.8877 11.33C17.8877 11.67 17.9577 11.9667 18.0977 12.22C18.2377 12.4733 18.4243 12.6667 18.6577 12.8C18.8977 12.9333 19.1677 13 19.4677 13ZM23.1525 14V8.66H25.7625C26.4092 8.66 26.9158 8.78 27.2825 9.02C27.6558 9.26 27.8425 9.6 27.8425 10.04C27.8425 10.4733 27.6692 10.8133 27.3225 11.06C26.9758 11.3 26.5158 11.42 25.9425 11.42L26.0925 11.11C26.7392 11.11 27.2192 11.23 27.5325 11.47C27.8525 11.7033 28.0125 12.0467 28.0125 12.5C28.0125 12.9733 27.8358 13.3433 27.4825 13.61C27.1292 13.87 26.5925 14 25.8725 14H23.1525ZM24.3425 13.09H25.7725C26.1125 13.09 26.3692 13.0367 26.5425 12.93C26.7158 12.8167 26.8025 12.6467 26.8025 12.42C26.8025 12.18 26.7225 12.0033 26.5625 11.89C26.4025 11.7767 26.1525 11.72 25.8125 11.72H24.3425V13.09ZM24.3425 10.89H25.6525C25.9725 10.89 26.2125 10.8333 26.3725 10.72C26.5392 10.6 26.6225 10.4333 26.6225 10.22C26.6225 10 26.5392 9.83667 26.3725 9.73C26.2125 9.62333 25.9725 9.57 25.6525 9.57H24.3425V10.89ZM31.3239 14.07C30.7772 14.07 30.2906 13.9533 29.8639 13.72C29.4372 13.48 29.1006 13.1533 28.8539 12.74C28.6072 12.3267 28.4839 11.8567 28.4839 11.33C28.4839 10.7967 28.6072 10.3267 28.8539 9.92C29.1006 9.50667 29.4372 9.18333 29.8639 8.95C30.2906 8.71667 30.7772 8.6 31.3239 8.6C31.8772 8.6 32.3672 8.71667 32.7939 8.95C33.2272 9.18333 33.5639 9.50333 33.8039 9.91C34.0506 10.3167 34.1739 10.79 34.1739 11.33C34.1739 11.8567 34.0506 12.3267 33.8039 12.74C33.5639 13.1533 33.2272 13.48 32.7939 13.72C32.3672 13.9533 31.8772 14.07 31.3239 14.07ZM31.3239 13C31.6306 13 31.9039 12.9333 32.1439 12.8C32.3839 12.6667 32.5706 12.4733 32.7039 12.22C32.8439 11.9667 32.9139 11.67 32.9139 11.33C32.9139 10.9833 32.8439 10.6867 32.7039 10.44C32.5706 10.1867 32.3839 9.99333 32.1439 9.86C31.9039 9.72667 31.6339 9.66 31.3339 9.66C31.0272 9.66 30.7539 9.72667 30.5139 9.86C30.2806 9.99333 30.0939 10.1867 29.9539 10.44C29.8139 10.6867 29.7439 10.9833 29.7439 11.33C29.7439 11.67 29.8139 11.9667 29.9539 12.22C30.0939 12.4733 30.2806 12.6667 30.5139 12.8C30.7539 12.9333 31.0239 13 31.3239 13ZM37.4987 14.07C36.9054 14.07 36.3854 13.9533 35.9387 13.72C35.4987 13.48 35.1554 13.1533 34.9087 12.74C34.6687 12.3267 34.5487 11.8567 34.5487 11.33C34.5487 10.7967 34.6654 10.3267 34.8987 9.92C35.1387 9.50667 35.4654 9.18333 35.8787 8.95C36.2987 8.71667 36.7754 8.6 37.3087 8.6C37.8287 8.6 38.2921 8.71333 38.6987 8.94C39.1054 9.16667 39.4254 9.48667 39.6587 9.9C39.8921 10.3133 40.0087 10.8 40.0087 11.36C40.0087 11.4133 40.0054 11.4733 39.9987 11.54C39.9987 11.6067 39.9954 11.67 39.9887 11.73H35.5387V10.9H39.3287L38.8387 11.16C38.8454 10.8533 38.7821 10.5833 38.6487 10.35C38.5154 10.1167 38.3321 9.93333 38.0987 9.8C37.8721 9.66667 37.6087 9.6 37.3087 9.6C37.0021 9.6 36.7321 9.66667 36.4987 9.8C36.2721 9.93333 36.0921 10.12 35.9587 10.36C35.8321 10.5933 35.7687 10.87 35.7687 11.19V11.39C35.7687 11.71 35.8421 11.9933 35.9887 12.24C36.1354 12.4867 36.3421 12.6767 36.6087 12.81C36.8754 12.9433 37.1821 13.01 37.5287 13.01C37.8287 13.01 38.0987 12.9633 38.3387 12.87C38.5787 12.7767 38.7921 12.63 38.9787 12.43L39.6487 13.2C39.4087 13.48 39.1054 13.6967 38.7387 13.85C38.3787 13.9967 37.9654 14.07 37.4987 14.07Z" fill="white"/>
</svg>
