<svg width="40" height="40" viewBox="0 0 40 40" fill="none" xmlns="http://www.w3.org/2000/svg">
<path d="M19.3435 33.9126C22.7677 34.2757 26.2062 33.368 29 31.3635C27.5398 29.9096 26.5372 28.9966 26.1537 23.3595C25.5813 14.9562 19.8906 12 15 12C10.1094 12 4.41872 14.9562 3.84634 23.3595C3.4628 28.9966 2.46016 29.9096 1 31.3693C3.81044 33.3825 7.26905 34.2904 10.711 33.9184" stroke="#796683" stroke-width="1.5" stroke-linecap="round" stroke-linejoin="round"/>
<path d="M26 38.9608C24.3485 38.3213 22.5017 37.6602 20.5306 36.9343C19.8477 36.6832 19.3943 36.0359 19.3941 35.312V32.1556C19.3942 31.6704 19.5997 31.2075 19.9604 30.8805C21.272 29.6911 22.0142 28.0041 22.0025 26.2391V21.9234C19.2801 21.5036 16.8063 20.1081 15.0474 18C13.2884 20.1081 10.8146 21.5036 8.0922 21.9234V26.2391C8.08042 28.0047 8.82263 29.6923 10.1343 30.8825C10.495 31.2095 10.7005 31.6723 10.7006 32.1576V35.314C10.7004 36.0379 10.247 36.6851 9.56413 36.9363C7.55552 37.6759 5.67516 38.3487 4 39" stroke="#796683" stroke-width="1.5" stroke-linecap="round" stroke-linejoin="round"/>
<path d="M28 6.79979C28.0003 5.37585 29.1454 4.17887 30.6611 4.01809C32.1768 3.85731 33.5804 4.78395 33.9229 6.17152C34.2655 7.55909 33.4379 8.96568 31.9997 9.44032C31.4002 9.63819 30.9994 10.1675 30.9998 10.7611V11" stroke="#796683" stroke-width="1.5" stroke-linecap="round" stroke-linejoin="round"/>
<path d="M31.375 14C31.1679 14 31 14.1679 31 14.375C31 14.5821 31.1679 14.75 31.375 14.75C31.5821 14.75 31.75 14.5821 31.75 14.375C31.75 14.1679 31.5821 14 31.375 14V14" stroke="#796683" stroke-width="1.5" stroke-linecap="round" stroke-linejoin="round"/>
</svg>
