<svg width="40" height="40" viewBox="0 0 40 40" fill="none" xmlns="http://www.w3.org/2000/svg">
<path fill-rule="evenodd" clip-rule="evenodd" d="M20.9603 1.68834L24.0903 5.29001C24.3993 5.64464 24.8785 5.80031 25.3369 5.69501L29.9869 4.62001C30.3459 4.53761 30.723 4.6147 31.0208 4.83138C31.3187 5.04805 31.5081 5.38309 31.5403 5.75001L31.9569 10.5033C31.9971 10.9721 32.2935 11.3802 32.7269 11.5633L37.1203 13.4283C37.4614 13.5718 37.7232 13.8569 37.8372 14.209C37.9511 14.5612 37.906 14.9455 37.7136 15.2617L35.2553 19.3517C35.0134 19.7549 35.0134 20.2585 35.2553 20.6617L37.7136 24.7517C37.906 25.0679 37.9511 25.4522 37.8372 25.8043C37.7232 26.1565 37.4614 26.4415 37.1203 26.585L32.7269 28.45C32.2935 28.6332 31.9971 29.0412 31.9569 29.51L31.5403 34.2633C31.5081 34.6303 31.3187 34.9653 31.0208 35.182C30.723 35.3986 30.3459 35.4757 29.9869 35.3933L25.3369 34.3183C24.8785 34.213 24.3993 34.3687 24.0903 34.7233L20.9603 38.3267C20.7181 38.6037 20.3682 38.7626 20.0003 38.7626C19.6323 38.7626 19.2824 38.6037 19.0403 38.3267L15.9103 34.71C15.6012 34.3554 15.122 34.1997 14.6636 34.305L10.0136 35.38C9.6546 35.4624 9.27752 35.3853 8.97967 35.1686C8.68182 34.952 8.49238 34.6169 8.46026 34.25L8.04359 29.5C8.00341 29.0312 7.70701 28.6232 7.27359 28.44L2.88026 26.5717C2.53906 26.4282 2.27732 26.1432 2.16335 25.791C2.04938 25.4389 2.0945 25.0545 2.28692 24.7383L4.74526 20.6483C4.98859 20.2456 4.98859 19.7411 4.74526 19.3383L2.28692 15.255C2.0945 14.9388 2.04938 14.5545 2.16335 14.2023C2.27732 13.8502 2.53906 13.5652 2.88026 13.4217L7.27359 11.5633C7.708 11.3796 8.0046 10.9701 8.04359 10.5L8.46026 5.74667C8.49238 5.37975 8.68182 5.04472 8.97967 4.82804C9.27752 4.61137 9.6546 4.53428 10.0136 4.61667L14.6636 5.69167C15.122 5.79698 15.6012 5.64131 15.9103 5.28667L19.0403 1.68501C19.2823 1.40741 19.6327 1.24836 20.001 1.24899C20.3693 1.24963 20.7192 1.4099 20.9603 1.68834V1.68834Z" stroke="#796683" stroke-width="1.5" stroke-linecap="round" stroke-linejoin="round"/>
<path d="M9.36007 19.7H11.8495C12.1572 19.7 12.4066 19.9494 12.4066 20.2571C12.4066 20.5648 12.1572 20.8143 11.8495 20.8143H9.36007V19.7ZM9.46888 22.2656C9.46888 22.6712 9.14006 23 8.73444 23C8.32882 23 8 22.6712 8 22.2656V17H12.2394C12.5471 17 12.7965 17.2494 12.7965 17.5571C12.7965 17.8648 12.5471 18.1143 12.2394 18.1143H9.46888V22.2656Z" fill="#796683"/>
<path d="M14.7067 23C14.3011 23 13.9723 22.6712 13.9723 22.2656V17H16.7196C17.2878 17 17.7774 17.0886 18.1885 17.2657C18.5995 17.4371 18.9169 17.6857 19.1405 18.0114C19.3642 18.3371 19.476 18.7257 19.476 19.1771C19.476 19.6229 19.3642 20.0086 19.1405 20.3343C18.9169 20.6543 18.5995 20.9 18.1885 21.0714C17.7774 21.2429 17.2878 21.3286 16.7196 21.3286H14.7883L15.4411 20.72V22.2656C15.4411 22.6712 15.1123 23 14.7067 23ZM18.3315 23C18.1277 23 17.9361 22.9026 17.8161 22.7379L16.4204 20.8229H17.989L18.8448 21.9838C19.1552 22.4049 18.8546 23 18.3315 23ZM15.4411 20.8743L14.7883 20.2229H16.638C17.0914 20.2229 17.4299 20.1314 17.6535 19.9486C17.8772 19.76 17.989 19.5029 17.989 19.1771C17.989 18.8457 17.8772 18.5886 17.6535 18.4057C17.4299 18.2229 17.0914 18.1314 16.638 18.1314H14.7883L15.4411 17.4714V20.8743Z" fill="#796683"/>
<path d="M22.1721 19.4171H24.6878C24.986 19.4171 25.2278 19.6589 25.2278 19.9571C25.2278 20.2554 24.986 20.4971 24.6878 20.4971H22.1721V19.4171ZM22.281 21.8857H25.1784C25.4861 21.8857 25.7355 22.1352 25.7355 22.4429C25.7355 22.7506 25.4861 23 25.1784 23H20.8211V17H25.0605C25.3682 17 25.6177 17.2494 25.6177 17.5571C25.6177 17.8648 25.3682 18.1143 25.0605 18.1143H22.281V21.8857Z" fill="#796683"/>
<path d="M28.4366 19.4171H30.9522C31.2505 19.4171 31.4922 19.6589 31.4922 19.9571C31.4922 20.2554 31.2505 20.4971 30.9522 20.4971H28.4366V19.4171ZM28.5454 21.8857H31.4429C31.7506 21.8857 32 22.1352 32 22.4429C32 22.7506 31.7506 23 31.4429 23H27.0856V17H31.325C31.6327 17 31.8821 17.2494 31.8821 17.5571C31.8821 17.8648 31.6327 18.1143 31.325 18.1143H28.5454V21.8857Z" fill="#796683"/>
</svg>
