<svg width="233" height="37" viewBox="0 0 233 37" fill="none" xmlns="http://www.w3.org/2000/svg">
<path d="M19.28 37C16.5057 37 13.942 36.5496 11.5891 35.6489C9.23615 34.7135 7.19928 33.4143 5.47848 31.7514C3.75768 30.0885 2.40561 28.1311 1.4223 25.8792C0.474099 23.6273 0 21.1676 0 18.5C0 15.8324 0.474099 13.3727 1.4223 11.1208C2.40561 8.86891 3.75768 6.91152 5.47848 5.2486C7.2344 3.58567 9.28883 2.30384 11.6418 1.40309C13.9947 0.467697 16.5584 0 19.3327 0C22.0017 0 24.5127 0.450375 26.8656 1.35112C29.2186 2.21723 31.2027 3.53371 32.8182 5.30056L30.3423 7.74298C28.8323 6.21863 27.1641 5.12734 25.338 4.4691C23.5118 3.77622 21.5452 3.42977 19.4381 3.42977C17.2256 3.42977 15.1712 3.81086 13.2748 4.57303C11.3784 5.30056 9.72781 6.35721 8.32307 7.74298C6.91834 9.0941 5.81211 10.6877 5.00438 12.5239C4.23177 14.3254 3.84547 16.3174 3.84547 18.5C3.84547 20.6826 4.23177 22.6919 5.00438 24.5281C5.81211 26.3296 6.91834 27.9232 8.32307 29.309C9.72781 30.6601 11.3784 31.7168 13.2748 32.4789C15.1712 33.2065 17.2256 33.5702 19.4381 33.5702C21.5452 33.5702 23.5118 33.2238 25.338 32.5309C27.1641 31.838 28.8323 30.7294 30.3423 29.2051L32.8182 31.6475C31.2027 33.4143 29.2186 34.7481 26.8656 35.6489C24.5127 36.5496 21.9842 37 19.28 37Z" fill="url(#paint0_linear_1275_18342)"/>
<path d="M43.7352 36.6882L60.5921 0.311797H64.4376L81.2944 36.6882H77.1856L61.6983 2.54635H63.2787L47.7914 36.6882H43.7352ZM50.3726 26.9705L51.5315 23.8525H72.9714L74.1303 26.9705H50.3726Z" fill="url(#paint1_linear_1275_18342)"/>
<path d="M94.8927 37C94.401 37 93.9269 36.9654 93.4704 36.8961C93.0138 36.8614 92.5046 36.7748 91.9427 36.6362L92.2588 33.2065C92.8558 33.345 93.4353 33.4143 93.9971 33.4143C95.5775 33.4143 96.8417 32.8081 97.7899 31.5955C98.7733 30.3483 99.5107 28.4429 100.002 25.8792C100.494 23.2809 100.81 19.9551 100.951 15.9017L101.477 0.311797H126.499V36.6882H122.654V2.59832L123.655 3.63764H103.953L104.901 2.54635L104.427 15.7978C104.287 19.4354 104.023 22.588 103.637 25.2556C103.251 27.8886 102.689 30.0885 101.951 31.8553C101.214 33.5875 100.266 34.8867 99.1069 35.7528C97.948 36.5843 96.5432 37 94.8927 37Z" fill="url(#paint2_linear_1275_18342)"/>
<path d="M164.33 37C161.556 37 158.975 36.5496 156.586 35.6489C154.234 34.7135 152.179 33.4143 150.423 31.7514C148.702 30.0538 147.35 28.0964 146.367 25.8792C145.419 23.6273 144.945 21.1676 144.945 18.5C144.945 15.8324 145.419 13.39 146.367 11.1728C147.35 8.92088 148.702 6.96348 150.423 5.30056C152.179 3.603 154.234 2.30384 156.586 1.40309C158.939 0.467697 161.521 0 164.33 0C167.104 0 169.668 0.467697 172.021 1.40309C174.374 2.30384 176.411 3.58567 178.132 5.2486C179.888 6.91152 181.24 8.86891 182.188 11.1208C183.171 13.3727 183.663 15.8324 183.663 18.5C183.663 21.1676 183.171 23.6273 182.188 25.8792C181.24 28.1311 179.888 30.0885 178.132 31.7514C176.411 33.4143 174.374 34.7135 172.021 35.6489C169.668 36.5496 167.104 37 164.33 37ZM164.33 33.5702C166.543 33.5702 168.579 33.2065 170.441 32.4789C172.337 31.7168 173.97 30.6601 175.34 29.309C176.744 27.9232 177.833 26.3296 178.606 24.5281C179.378 22.6919 179.765 20.6826 179.765 18.5C179.765 16.3174 179.378 14.3254 178.606 12.5239C177.833 10.6877 176.744 9.0941 175.34 7.74298C173.97 6.35721 172.337 5.30056 170.441 4.57303C168.579 3.81086 166.543 3.42977 164.33 3.42977C162.118 3.42977 160.063 3.81086 158.167 4.57303C156.27 5.30056 154.62 6.35721 153.215 7.74298C151.845 9.0941 150.757 10.6877 149.949 12.5239C149.176 14.3254 148.79 16.3174 148.79 18.5C148.79 20.6479 149.176 22.64 149.949 24.4761C150.757 26.3123 151.845 27.9232 153.215 29.309C154.62 30.6601 156.27 31.7168 158.167 32.4789C160.063 33.2065 162.118 33.5702 164.33 33.5702Z" fill="url(#paint3_linear_1275_18342)"/>
<path d="M229.155 0.311797H233V36.6882H229.155V0.311797ZM206.082 36.6882H202.184V0.311797H206.082V36.6882ZM229.523 19.9031H205.66V16.5253H229.523V19.9031Z" fill="url(#paint4_linear_1275_18342)"/>
<defs>
<linearGradient id="paint0_linear_1275_18342" x1="-7.78697e-07" y1="2.41307" x2="233.886" y2="18.4488" gradientUnits="userSpaceOnUse">
<stop stop-color="#DD3370"/>
<stop offset="1" stop-color="#DA3497"/>
<stop offset="1" stop-color="#A81B6F"/>
</linearGradient>
<linearGradient id="paint1_linear_1275_18342" x1="-7.78697e-07" y1="2.41307" x2="233.886" y2="18.4488" gradientUnits="userSpaceOnUse">
<stop stop-color="#DD3370"/>
<stop offset="1" stop-color="#DA3497"/>
<stop offset="1" stop-color="#A81B6F"/>
</linearGradient>
<linearGradient id="paint2_linear_1275_18342" x1="-7.78697e-07" y1="2.41307" x2="233.886" y2="18.4488" gradientUnits="userSpaceOnUse">
<stop stop-color="#DD3370"/>
<stop offset="1" stop-color="#DA3497"/>
<stop offset="1" stop-color="#A81B6F"/>
</linearGradient>
<linearGradient id="paint3_linear_1275_18342" x1="-7.78697e-07" y1="2.41307" x2="233.886" y2="18.4488" gradientUnits="userSpaceOnUse">
<stop stop-color="#DD3370"/>
<stop offset="1" stop-color="#DA3497"/>
<stop offset="1" stop-color="#A81B6F"/>
</linearGradient>
<linearGradient id="paint4_linear_1275_18342" x1="-7.78697e-07" y1="2.41307" x2="233.886" y2="18.4488" gradientUnits="userSpaceOnUse">
<stop stop-color="#DD3370"/>
<stop offset="1" stop-color="#DA3497"/>
<stop offset="1" stop-color="#A81B6F"/>
</linearGradient>
</defs>
</svg>
