<svg width="39" height="17" viewBox="0 0 39 17" fill="none" xmlns="http://www.w3.org/2000/svg">
<path d="M0.52 17V0.199999H2.488L13.6 14H12.568V0.199999H14.968V17H13L1.888 3.2H2.92V17H0.52ZM17.632 11.264V9.704H25.216V11.264H17.632ZM21.424 7.808C20.592 7.808 19.856 7.64 19.216 7.304C18.576 6.968 18.072 6.512 17.704 5.936C17.336 5.344 17.152 4.672 17.152 3.92C17.152 3.168 17.336 2.504 17.704 1.928C18.072 1.336 18.576 0.879999 19.216 0.559999C19.872 0.223999 20.608 0.0559993 21.424 0.0559993C22.256 0.0559993 22.992 0.223999 23.632 0.559999C24.272 0.879999 24.768 1.336 25.12 1.928C25.488 2.504 25.672 3.168 25.672 3.92C25.672 4.672 25.488 5.344 25.12 5.936C24.768 6.512 24.272 6.968 23.632 7.304C22.992 7.64 22.256 7.808 21.424 7.808ZM21.424 6.416C22.208 6.416 22.84 6.184 23.32 5.72C23.816 5.256 24.064 4.656 24.064 3.92C24.064 3.168 23.816 2.568 23.32 2.12C22.84 1.656 22.208 1.424 21.424 1.424C20.64 1.424 20 1.656 19.504 2.12C19.008 2.568 18.76 3.168 18.76 3.92C18.76 4.64 19.008 5.24 19.504 5.72C20 6.184 20.64 6.416 21.424 6.416ZM36.3678 17V1.16L37.3998 2.288H32.5758V0.199999H38.7438V17H36.3678Z" fill="#F755A2"/>
</svg>
