<svg width="40" height="40" viewBox="0 0 40 40" fill="none" xmlns="http://www.w3.org/2000/svg">
<g id="Icon set 1">
<g id="Group">
<g id="Regular">
<path id="Oval" fill-rule="evenodd" clip-rule="evenodd" d="M10 11.25C12.7614 11.25 15 9.01142 15 6.25C15 3.48858 12.7614 1.25 10 1.25C7.23858 1.25 5 3.48858 5 6.25C5 9.01142 7.23858 11.25 10 11.25Z" stroke="#9386FE" stroke-width="1.5" stroke-linecap="round" stroke-linejoin="round"/>
<path id="Shape" fill-rule="evenodd" clip-rule="evenodd" d="M18.75 22.5C18.75 17.6675 14.8325 13.75 10 13.75C5.16751 13.75 1.25 17.6675 1.25 22.5V26.25H5L6.25 38.75H13.75L15 26.25H18.75V22.5Z" stroke="#9386FE" stroke-width="1.5" stroke-linecap="round" stroke-linejoin="round"/>
<path id="Shape_2" d="M10 13.75V23.75" stroke="#9386FE" stroke-width="1.5" stroke-linecap="round" stroke-linejoin="round"/>
<path id="Oval_2" fill-rule="evenodd" clip-rule="evenodd" d="M30 11.25C32.7614 11.25 35 9.01142 35 6.25C35 3.48858 32.7614 1.25 30 1.25C27.2386 1.25 25 3.48858 25 6.25C25 9.01142 27.2386 11.25 30 11.25Z" stroke="#9386FE" stroke-width="1.5" stroke-linecap="round" stroke-linejoin="round"/>
<path id="Shape_3" d="M22.5 26.2499H25L26.25 38.7499H33.75L35 26.2499H38.75V22.4999C38.7514 19.5553 37.2705 16.8077 34.81 15.1899L30 22.4999L25.19 15.1899C24.0954 15.9147 23.1764 16.8747 22.5 17.9999" stroke="#9386FE" stroke-width="1.5" stroke-linecap="round" stroke-linejoin="round"/>
<path id="Shape_4" d="M25 6.25C25 6.25 25 12.5 21.25 12.5" stroke="#9386FE" stroke-width="1.5" stroke-linecap="round" stroke-linejoin="round"/>
<path id="Shape_5" d="M35 6.25C35 6.25 35 12.5 38.75 12.5" stroke="#9386FE" stroke-width="1.5" stroke-linecap="round" stroke-linejoin="round"/>
</g>
</g>
</g>
</svg>
