<svg width="40" height="40" viewBox="0 0 40 40" fill="none" xmlns="http://www.w3.org/2000/svg">
<g id="Icon set 1">
<g id="Group">
<g id="trends-hot-flame">
<path id="Shape" d="M28.0767 23.7034C28.2289 27.6837 25.1331 31.0373 21.1534 31.2034" stroke="#9386FE" stroke-width="1.5" stroke-linecap="round" stroke-linejoin="round"/>
<path id="Shape_2" fill-rule="evenodd" clip-rule="evenodd" d="M20 38.7033C12.3083 38.7033 5 33.1066 5 26.2033C4.91067 20.8244 8.20363 15.9669 13.2333 14.0583C13.4356 13.9758 13.6663 14.0049 13.8417 14.135C14.0172 14.2652 14.1119 14.4775 14.0917 14.695C13.74 17.3849 14.7714 20.0704 16.8333 21.8333C17.3143 22.2407 18.0234 22.2257 18.4867 21.7983C20.6867 19.77 26.0817 13.07 16.4483 2.33831C16.2742 2.1446 16.2384 1.86317 16.3586 1.63206C16.4788 1.40094 16.7297 1.26862 16.9883 1.29997C26.035 2.41164 35 12.6183 35 22.4533C35 30.7866 30 38.7033 20 38.7033Z" stroke="#9386FE" stroke-width="1.5" stroke-linecap="round" stroke-linejoin="round"/>
</g>
</g>
</g>
</svg>
