<svg width="40" height="40" viewBox="0 0 40 40" fill="none" xmlns="http://www.w3.org/2000/svg">
<g id="Icon set 1">
<g id="Group">
<g id="certified-certificate">
<path id="Shape" d="M11.25 31.25V35C11.25 37.0711 9.57107 38.75 7.5 38.75H25C27.0711 38.75 28.75 37.0711 28.75 35V6.51667C28.75 5.57333 29.48 1.25 33.75 1.25C36.5114 1.25 38.75 3.48858 38.75 6.25V11.25H28.75" stroke="#9386FE" stroke-width="1.5" stroke-linecap="round" stroke-linejoin="round"/>
<path id="Shape_2" d="M33.75 1.25H18.75" stroke="#9386FE" stroke-width="1.5" stroke-linecap="round" stroke-linejoin="round"/>
<path id="Shape_3" d="M4.56166 14.9717L3.22 24.77C3.12242 25.3082 3.38561 25.8474 3.86992 26.1016C4.35424 26.3558 4.94751 26.2661 5.335 25.88L8.75 22.4633L12.1667 25.88C12.5541 26.2661 13.1474 26.3558 13.6317 26.1016C14.1161 25.8474 14.3792 25.3082 14.2817 24.77L12.9483 14.9717" stroke="#9386FE" stroke-width="1.5" stroke-linecap="round" stroke-linejoin="round"/>
<path id="Oval" fill-rule="evenodd" clip-rule="evenodd" d="M8.75 16.25C12.8921 16.25 16.25 12.8921 16.25 8.75C16.25 4.60786 12.8921 1.25 8.75 1.25C4.60786 1.25 1.25 4.60786 1.25 8.75C1.25 12.8921 4.60786 16.25 8.75 16.25Z" stroke="#9386FE" stroke-width="1.5" stroke-linecap="round" stroke-linejoin="round"/>
<path id="Shape_4" d="M8.75 8.125C8.40482 8.125 8.125 8.40482 8.125 8.75C8.125 9.09518 8.40482 9.375 8.75 9.375C9.09518 9.375 9.375 9.09518 9.375 8.75C9.375 8.40482 9.09518 8.125 8.75 8.125" stroke="#9386FE" stroke-width="1.5" stroke-linecap="round" stroke-linejoin="round"/>
</g>
</g>
</g>
</svg>
