<svg width="40" height="40" viewBox="0 0 40 40" fill="none" xmlns="http://www.w3.org/2000/svg">
<g id="Icon set 1">
<g id="Group">
<g id="Regular">
<path id="Shape" fill-rule="evenodd" clip-rule="evenodd" d="M38.75 16.5617C38.7515 27.5421 30.8269 36.9199 20 38.75C9.17311 36.9199 1.24852 27.5421 1.25 16.5617V3.75C1.25 2.36929 2.36929 1.25 3.75 1.25H36.25C37.6307 1.25 38.75 2.36929 38.75 3.75V16.5617Z" stroke="#9386FE" stroke-width="1.5" stroke-linecap="round" stroke-linejoin="round"/>
<path id="Oval" fill-rule="evenodd" clip-rule="evenodd" d="M20 20C23.1066 20 25.625 17.4816 25.625 14.375C25.625 11.2684 23.1066 8.75 20 8.75C16.8934 8.75 14.375 11.2684 14.375 14.375C14.375 17.4816 16.8934 20 20 20Z" stroke="#9386FE" stroke-width="1.5" stroke-linecap="round" stroke-linejoin="round"/>
<path id="Shape_2" d="M28.9783 27.9166C27.27 24.5257 23.797 22.3865 20 22.3865C16.203 22.3865 12.73 24.5257 11.0217 27.9166" stroke="#9386FE" stroke-width="1.5" stroke-linecap="round" stroke-linejoin="round"/>
<path id="Shape_3" d="M25.625 14.5601C21.8496 15.6472 17.7804 14.6892 14.8867 12.0317" stroke="#9386FE" stroke-width="1.5" stroke-linecap="round" stroke-linejoin="round"/>
</g>
</g>
</g>
</svg>
