<svg width="82" height="23" viewBox="0 0 82 23" fill="none" xmlns="http://www.w3.org/2000/svg">
<path d="M30.9027 4.46858C32.1895 5.43404 33.1848 6.62095 33.8834 8.02556C34.5824 9.43123 34.9307 10.9615 34.9307 12.6122C34.9307 15.1684 34.088 17.3898 32.4057 19.2608C31.385 20.399 30.1819 21.2596 28.798 21.8405C27.5737 22.3567 26.2959 22.6145 24.9651 22.6145C22.1259 22.6145 19.7186 21.5742 17.7618 19.501C15.9233 17.547 15 15.2251 15 12.5496C15 10.455 15.5851 8.55402 16.7554 6.85523C17.7125 5.44635 18.9565 4.35037 20.4871 3.56623C21.8121 2.87516 23.2982 2.52214 24.9391 2.50074C27.1518 2.50074 29.1446 3.15704 30.9027 4.46858ZM19.1186 5.95502C17.4672 7.57732 16.6419 9.58046 16.6419 11.9858C16.6419 13.4835 16.9806 14.9732 17.6648 16.4612C18.5272 18.2985 19.7578 19.6395 21.3558 20.5039C22.5488 21.1479 23.8303 21.4699 25.2046 21.4699C27.2854 21.4699 29.0795 20.7676 30.6016 19.3576C31.4374 18.582 32.0888 17.6663 32.5568 16.6072C33.0449 15.4973 33.2887 14.3441 33.2887 13.1444C33.2887 11.1006 32.772 9.25686 31.7416 7.60567C30.874 6.20267 29.716 5.15109 28.2622 4.44504C27.19 3.93263 26.0192 3.66518 24.7388 3.64486C22.5589 3.64486 20.6922 4.41242 19.1186 5.95502ZM37.6233 1.85305L37.6625 0.38533H35.9554L35.9596 0.689679C35.9702 1.45189 35.9983 2.95652 36.0423 5.20196C36.0747 6.47284 36.0911 7.95875 36.0911 9.65754C36.0911 14.1227 36.0471 18.2542 35.9596 22.0513L35.9528 22.3578H41.8066H44.4905L48.376 22.3263L50.5956 22.3578H51.5766V20.5446L51.2258 20.6093C49.8329 20.8671 48.5758 21.0329 47.4543 21.1051C46.3264 21.1779 44.4439 21.2137 41.8066 21.2137H37.6488C37.5783 17.4957 37.5428 15.4744 37.5428 15.1497L37.5597 9.4591L37.5767 4.98854L37.6233 1.85305ZM53.8528 2.50031H57.743C60.2165 2.50031 61.7551 2.52759 62.3577 2.58001C62.9953 2.6351 63.6276 2.81215 64.2551 3.10741C65.4094 3.64122 66.268 4.40236 66.8102 5.39671C67.4245 6.53655 67.7149 8.1995 67.7149 10.3471C67.7149 10.8493 67.7043 11.6495 67.6831 12.7482C67.663 13.7783 67.6529 14.5074 67.6529 14.9342C67.6529 17.7889 67.6942 20.1595 67.7764 22.045L67.7902 22.3579H66.0263L66.0512 22.0353C66.0777 21.693 66.118 20.8843 66.1742 19.6096C65.5949 20.1627 65.0941 20.5842 64.6695 20.8704C63.8878 21.4111 63.0011 21.8353 62.0095 22.1466C61.0184 22.4574 60.0559 22.6146 59.1231 22.6146C57.1176 22.6146 55.2557 22.0155 53.5443 20.8238C51.2181 19.2144 50.0442 17.0042 50.0442 14.2202C50.0442 11.496 51.1291 9.2789 53.2825 7.59455C55.0739 6.20599 57.1541 5.51278 59.5105 5.51278C60.8244 5.51278 62.0312 5.72406 63.1288 6.15197C64.0537 6.51194 65.0427 7.08213 66.0952 7.8545C65.8944 6.81308 65.5594 6.00755 65.1052 5.42238C64.5805 4.73613 63.945 4.26864 63.1977 4.01243C62.4382 3.75194 61.3035 3.61394 59.7739 3.61394C58.07 3.61394 55.9134 3.8065 53.3053 4.19001L52.9655 4.23976V2.49657L53.8528 2.50031ZM65.9882 9.32704C65.0336 8.51187 64.2323 7.93794 63.6106 7.61648C62.3423 6.93504 60.9622 6.59271 59.4686 6.59271C58.0859 6.59271 56.8038 6.88583 55.6161 7.47152C54.1374 8.21448 53.0715 9.33292 52.4075 10.8365C51.9914 11.788 51.7815 12.838 51.7815 13.9923C51.7815 16.3549 52.6306 18.2286 54.3255 19.6417C55.7703 20.8613 57.4345 21.47 59.3298 21.47C61.0645 21.47 62.6465 20.9527 64.0855 19.9118C64.6833 19.4727 65.3978 18.7667 66.2314 17.7798C66.259 17.223 66.2728 16.8882 66.2728 16.7715L66.2261 13.0948V9.52227C66.1477 9.44578 66.0645 9.37785 65.9882 9.32704Z" fill="#3A3A3A"/>
</svg>
