<svg width="24" height="24" viewBox="0 0 24 24" fill="none" xmlns="http://www.w3.org/2000/svg">
<path fill-rule="evenodd" clip-rule="evenodd" d="M14.432 20.3019L14.4416 20.3075C16.192 21.4217 18.4816 21.1707 19.9489 19.7035L20.5681 19.0844C21.144 18.5079 21.144 17.574 20.5681 16.9975L17.9593 14.3906C17.3827 13.8148 16.4486 13.8148 15.872 14.3906V14.3906C15.5955 14.6674 15.2202 14.823 14.8288 14.823C14.4375 14.823 14.0622 14.6674 13.7856 14.3906L9.61115 10.2159C9.03528 9.63934 9.03528 8.7054 9.61115 8.12889V8.12889C9.88805 7.85237 10.0436 7.47712 10.0436 7.08582C10.0436 6.69451 9.88805 6.31926 9.61115 6.04274L7.00311 3.43184C6.42652 2.85605 5.49246 2.85605 4.91588 3.43184L4.29667 4.05097C2.82968 5.51811 2.57828 7.80702 3.69186 9.55753L3.69826 9.56713C6.55703 13.7985 10.2007 17.4425 14.432 20.3019V20.3019Z" stroke="#1F1F39" stroke-width="1.5" stroke-linecap="round" stroke-linejoin="round"/>
</svg>
