<svg width="24" height="24" viewBox="0 0 24 24" fill="none" xmlns="http://www.w3.org/2000/svg">
<path d="M19.0456 15.7209C18.5096 14.7074 16.6481 13.6085 16.5662 13.5604C16.327 13.4242 16.0774 13.3522 15.8438 13.3522C15.4965 13.3522 15.2122 13.5113 15.04 13.8007C14.7677 14.1264 14.43 14.5071 14.3481 14.5662C13.7138 14.9965 13.2173 14.9477 12.6679 14.3982L9.60172 11.3313C9.05581 10.7853 9.00562 10.2826 9.43301 9.65171C9.4928 9.56921 9.87347 9.2312 10.1992 8.9586C10.4068 8.83499 10.5494 8.6513 10.6119 8.42596C10.6949 8.12614 10.6337 7.77345 10.4378 7.42983C10.3916 7.3508 9.29232 5.48883 8.27952 4.95298C8.09052 4.85286 7.87749 4.8 7.66393 4.8C7.31209 4.8 6.98107 4.93723 6.73228 5.1858L6.05476 5.86315C4.98322 6.93457 4.59534 8.1491 4.90127 9.47282C5.15647 10.576 5.90019 11.75 7.11215 12.9618L11.0376 16.8879C12.5715 18.422 14.0339 19.2 15.3841 19.2C15.3841 19.2 15.3841 19.2 15.3844 19.2C16.3774 19.2 17.3032 18.7779 18.1353 17.9457L18.8126 17.2683C19.2242 16.8569 19.3176 16.2348 19.0456 15.7209Z" fill="#19191C"/>
</svg>
