<svg width="31" height="44" viewBox="0 0 31 44" fill="none" xmlns="http://www.w3.org/2000/svg">
<path d="M20.6452 15.1522C20.6452 17.9256 18.3416 20.1739 15.5 20.1739C12.6584 20.1739 10.3548 17.9256 10.3548 15.1522C10.3548 12.3787 12.6584 10.1304 15.5 10.1304C18.3416 10.1304 20.6452 12.3787 20.6452 15.1522Z" fill="white"/>
<path d="M15.5 1C7.49083 1 1 7.32912 1 15.1386C1 23.1089 5.05145 24.8069 9.52942 30.1089C14.8855 36.4507 14.0968 43 15.5 43C16.9032 43 16.1145 36.4507 21.4706 30.109C25.9486 24.8069 30 23.1089 30 15.1387C30 7.32912 23.5092 1 15.5 1ZM15.5 20.0248C12.7324 20.0248 10.489 17.8372 10.489 15.1387C10.489 12.4402 12.7325 10.2526 15.5 10.2526C18.2675 10.2526 20.511 12.4402 20.511 15.1387C20.511 17.8372 18.2675 20.0248 15.5 20.0248Z" fill="#6339F5"/>
<path d="M15.5 0.5C7.22666 0.5 0.5 7.04116 0.5 15.1386C0.5 19.2293 1.5464 21.7528 3.18639 23.9256C3.9949 24.9968 4.94315 25.9768 5.95059 27.0039C6.01636 27.071 6.08242 27.1383 6.14874 27.2059C7.10343 28.1784 8.11398 29.2079 9.14744 30.4315C11.76 33.5249 12.8764 36.6699 13.5139 39.0614C13.6726 39.6569 13.8015 40.2048 13.9175 40.6982L13.9198 40.7078C14.0353 41.199 14.1402 41.6454 14.2481 42.017C14.3537 42.3805 14.475 42.7206 14.6398 42.9767C14.8107 43.2424 15.0863 43.5 15.5 43.5C15.9137 43.5 16.1893 43.2424 16.3602 42.9767C16.525 42.7206 16.6463 42.3805 16.7519 42.017C16.8598 41.6454 16.9647 41.199 17.0803 40.7078L17.0825 40.6981C17.1985 40.2048 17.3274 39.6569 17.4861 39.0614C18.1236 36.6699 19.24 33.5249 21.8526 30.4316C22.886 29.2079 23.8966 28.1784 24.8513 27.2058C24.9176 27.1383 24.9837 27.071 25.0494 27.004C26.0569 25.9768 27.0051 24.9968 27.8136 23.9256C29.4536 21.7528 30.5 19.2293 30.5 15.1387C30.5 7.04116 23.7733 0.5 15.5 0.5Z" stroke="white"/>
</svg>
