<svg width="12" height="13" viewBox="0 0 12 13" fill="none" xmlns="http://www.w3.org/2000/svg">
<path id="Shape" fill-rule="evenodd" clip-rule="evenodd" d="M6.70255 0.927341L8.24211 4.24893H11.2374C11.5469 4.23677 11.8306 4.42062 11.9466 4.70842C12.0626 4.99622 11.9857 5.32598 11.7545 5.53255L9.15866 8.09578L10.5994 11.4114C10.7283 11.7226 10.645 12.0816 10.3922 12.3039C10.1394 12.5262 9.77339 12.5624 9.48215 12.3938L6.00067 10.4319L2.52019 12.3938C2.2289 12.5632 1.86228 12.5274 1.60908 12.3049C1.35587 12.0824 1.27253 11.7229 1.40196 11.4114L2.84268 8.09578L0.246794 5.53255C0.0160557 5.32762 -0.0620056 4.9999 0.0514994 4.71264C0.165004 4.42538 0.445797 4.24003 0.753989 4.24893H3.74924L5.29079 0.92434C5.42979 0.662648 5.70174 0.499373 5.99758 0.500002C6.29341 0.500631 6.56467 0.665061 6.70255 0.927341Z" fill="#F1B354"/>
</svg>
