<svg width="100" height="100" viewBox="0 0 100 100" fill="none" xmlns="http://www.w3.org/2000/svg">
<g id="Emails / Envelopes / envelope">
<g id="Group">
<g id="envelope">
<path id="Shape" d="M48.2328 59.6766C50.267 61.1537 53.1129 60.7065 54.596 58.6766L83.9783 18.3376C84.3855 17.7808 84.4432 17.0418 84.1274 16.4286C83.8116 15.8153 83.1765 15.433 82.4868 15.441C82.1369 15.4443 81.7877 15.4733 81.442 15.5277L9.4605 26.8395C9.11233 26.8938 8.76865 26.9737 8.43224 27.0786C7.7733 27.2825 7.2861 27.8412 7.17365 28.5218C7.06119 29.2023 7.34279 29.888 7.90109 30.2931L48.2328 59.6766Z" fill="#EFEEF7"/>
<path id="Shape_2" d="M89.2732 21.0535C89.0107 20.9877 88.7345 21.088 88.5755 21.307L69.7679 47.1279C69.4728 47.5354 69.5622 48.1047 69.9681 48.402L90.9705 63.6998C91.779 64.2669 92.2185 65.2261 92.1203 66.2087C92.022 67.1913 91.4012 68.0445 90.4965 68.4402C89.5917 68.836 88.5439 68.7128 87.7556 68.118L66.7532 52.8201C66.5578 52.6774 66.3136 52.6183 66.0746 52.6559C65.8356 52.6934 65.6213 52.8246 65.4791 53.0203L59.0208 61.8869C55.7631 66.3568 49.4994 67.3412 45.0276 64.0859L36.155 57.636C35.7475 57.3409 35.1782 57.4303 34.8809 57.8362L19.583 78.8386C18.6841 80.0276 16.9981 80.2767 15.7937 79.3986C14.5892 78.5204 14.3108 76.839 15.1679 75.6195L30.4658 54.6171C30.7609 54.2096 30.6714 53.6403 30.2656 53.343L4.44464 34.5354C4.22678 34.3738 3.93189 34.3629 3.70276 34.5082C3.47689 34.6469 3.3553 34.9067 3.39356 35.169L10.1806 78.3579C10.8054 82.3333 14.5346 85.0496 18.51 84.4248L90.4915 73.113C94.4669 72.4883 97.1832 68.7591 96.5584 64.7837L89.7713 21.5948C89.7307 21.3299 89.5338 21.1159 89.2732 21.0535Z" fill="#EFEEF7"/>
</g>
</g>
</g>
</svg>
