<svg width="97" height="96" viewBox="0 0 97 96" fill="none" xmlns="http://www.w3.org/2000/svg">
<g id="Emails / Email-Actions / email-action-heart-1">
<g id="Group">
<g id="email-action-heart_1">
<path id="Shape" d="M55.0653 45.1654C59.9611 44.843 64.7829 46.4903 68.458 49.741C72.0867 47.5932 76.3456 46.764 80.515 47.3934C80.7623 47.4286 81.0133 47.3607 81.2091 47.2055C81.4061 47.0522 81.5307 46.824 81.5529 46.5754L84.5928 13.8387C84.6147 13.6035 84.4905 13.3787 84.2797 13.272C84.073 13.1638 83.8216 13.1894 83.6409 13.3371L49.8497 41.3858C46.1272 44.4683 40.6121 43.9561 37.5209 40.2409L9.46488 6.44901C9.31481 6.26962 9.07155 6.19812 8.84828 6.26779C8.62501 6.33746 8.46557 6.53461 8.44415 6.76751L4.90855 44.8418C4.75127 46.525 5.26959 48.2017 6.34933 49.5025C7.42906 50.8033 8.98162 51.6215 10.665 51.7768L39.7465 54.4774C40.1146 54.5085 40.4649 54.3142 40.6334 53.9855C43.7193 48.8694 49.1048 45.578 55.0653 45.1654Z" fill="#EFEEF7"/>
<path id="Shape_2" d="M41.1912 37.1878C42.5965 38.8805 45.1078 39.1137 46.8008 37.7087L80.386 9.83102C80.85 9.44653 81.0571 8.83289 80.9209 8.24584C80.6694 7.17281 79.7067 6.98467 78.8328 6.90352L15.3756 1.01083C14.5053 0.93002 13.5172 0.93701 13.076 1.94572C12.8375 2.49812 12.9278 3.13751 13.3099 3.60229L41.1912 37.1878Z" fill="#EFEEF7"/>
<path id="Shape_3" d="M81.099 52.9997C77.104 51.9376 72.8421 52.8889 69.6779 55.549L67.7715 57.1348L66.1896 55.225C63.5527 52.0505 59.551 50.3363 55.4337 50.6176C51.3164 50.8989 47.5851 53.1414 45.4044 56.6451C42.4872 61.3257 42.8898 67.3473 46.4042 71.5979L63.1521 92.6617C63.4609 93.0503 63.915 93.296 64.4092 93.3419C64.9035 93.3877 65.395 93.2299 65.7701 92.9048L86.0789 75.3077C90.3329 71.7785 91.8493 65.9219 89.8426 60.7716C88.367 56.9121 85.1049 54.0125 81.099 52.9997V52.9997Z" fill="#EFEEF7"/>
</g>
</g>
</g>
</svg>
