<svg width="24" height="24" viewBox="0 0 24 24" fill="none" xmlns="http://www.w3.org/2000/svg">
<path d="M18.6359 6.11477C18.6359 6.11477 20.116 5.55205 19.9927 6.91865C19.9516 7.48137 19.5816 9.45087 19.2938 11.5812L18.307 17.8916C18.307 17.8916 18.2248 18.8161 17.4847 18.9769C16.7447 19.1376 15.6346 18.4141 15.429 18.2533C15.2645 18.1328 12.3455 16.324 11.3176 15.4398C11.0298 15.1986 10.7008 14.7163 11.3587 14.1536L15.6757 10.1342C16.1691 9.65185 16.6624 8.52642 14.6067 9.89301L8.85071 13.7114C8.85071 13.7114 8.19288 14.1134 6.95947 13.7516L4.28702 12.9478C4.28702 12.9478 3.30027 12.3449 4.98596 11.7419C9.09741 9.85279 14.1545 7.92348 18.6359 6.11477Z" fill="#19191C"/>
</svg>
