<svg width="24" height="24" viewBox="0 0 24 24" fill="none" xmlns="http://www.w3.org/2000/svg">
<g id="vk-v2-svgrepo-com 1">
<path id="Vector" d="M19.0219 14.0098C19.0219 14.0098 20.4772 15.4065 20.8372 16.0528C20.8442 16.0621 20.8497 16.0725 20.8534 16.0834C21.0001 16.3222 21.0361 16.5094 20.9641 16.6475C20.8426 16.8758 20.4313 16.9904 20.2918 17H17.7196C17.5405 17 17.1679 16.9545 16.7143 16.6502C16.3678 16.4149 16.0231 16.0275 15.6892 15.6488C15.1906 15.0864 14.7595 14.5984 14.323 14.5984C14.2679 14.5983 14.2131 14.6071 14.161 14.6246C13.8307 14.7261 13.4113 15.1835 13.4113 16.4018C13.4113 16.7831 13.1017 17 12.8848 17H11.7067C11.3053 17 9.21549 16.8636 7.36239 14.9648C5.09168 12.6402 3.05228 7.97691 3.03248 7.93581C2.90558 7.63407 3.17198 7.46965 3.45998 7.46965H6.05738C6.40568 7.46965 6.51908 7.6743 6.59828 7.85797C6.69008 8.06874 7.03029 8.91184 7.58829 9.85902C8.49189 11.4 9.04719 12.0271 9.49089 12.0271C9.57425 12.0273 9.6562 12.0062 9.72849 11.9659C10.3081 11.6563 10.2001 9.64474 10.1731 9.23019C10.1731 9.14973 10.1722 8.33199 9.87519 7.93668C9.66279 7.65331 9.30099 7.54312 9.08229 7.50289C9.14079 7.42068 9.26499 7.29473 9.42429 7.2204C9.82119 7.02799 10.5385 7 11.2504 7H11.6455C12.4177 7.0105 12.6175 7.0586 12.8983 7.12769C13.4635 7.25888 13.4743 7.61483 13.4248 8.82701C13.4104 9.17334 13.3951 9.56341 13.3951 10.0226C13.3951 10.1205 13.3906 10.2298 13.3906 10.3409C13.3735 10.9627 13.351 11.6633 13.8028 11.951C13.8614 11.9865 13.9291 12.0053 13.9981 12.0052C14.1547 12.0052 14.6236 12.0052 15.8953 9.88438C16.4533 8.9477 16.8853 7.8431 16.915 7.76001C16.9402 7.71366 17.0158 7.58335 17.1076 7.53087C17.1729 7.49711 17.246 7.48024 17.32 7.4819H20.3755C20.7085 7.4819 20.9344 7.53087 20.9785 7.65331C21.0523 7.85185 20.9641 8.45793 19.5691 10.2911C19.3342 10.5963 19.1281 10.8604 18.9472 11.0913C17.6827 12.704 17.6827 12.7854 19.0219 14.0098V14.0098Z" fill="#B8BFCC"/>
</g>
</svg>
